#!OML:ASF F:\VICON\USERDATA\INSTALL\rory3\rory3.ASF
:FULLY-SPECIFIED
:DEGREES
97
root 0.6155430950799405 17.774730802444832 31.702692053334083 1.3878470529197264 -1.5216051955255134 -2.1760392307006726
lfemur -32.578502420272144 4.227561878419268 -20.495857154101376
ltibia 70.91889439107781
lfoot 0.35059695558440196 -9.419196198357861
ltoes -7.87718687473518
rfemur -5.594685754339286 4.775794583070706 31.211641248302946
rtibia 52.53676022805104
rfoot 2.747017405162484 -6.2340325921861135
rtoes -0.36278642748366274
lowerback 14.486767375731514 1.5813805277591708 4.6847268165007545
upperback -1.1707869088017937 3.511578087869445 2.014930548939877
thorax -9.264566244973217 1.3413063884171068 -0.9670797006652377
lowerneck -19.740091504992176 -4.493667231751764 -2.458782086791466
upperneck 12.36797037317901 -6.327634585836124 5.379418333570583
head 7.382630173285907 -2.5856540812157816 1.4066564369141814
lclavicle 2.9801515526439752e-15 1.1900897868484632e-16
lhumerus -52.45495060701118 -10.350086100789433 96.05448890852239
lradius 109.74111425205017
lwrist 34.28361834971973
lhand -20.582041136667655 2.8179554277641965
lfingers 7.125019999999999
lthumb 5.6742467396930305 32.72158496706024
rclavicle 2.9801381671163078e-15 1.1900166246856291e-16
rhumerus -41.128580309435364 13.145717373866997 -96.01054226832476
rradius 109.90801473356792
rwrist -15.264156626164104
rhand -15.738475385211473 38.561630734476154
rfingers 7.125019999999999
rthumb 10.59569815126213 8.508456897401597
98
root 0.6247411519072538 17.846833709830573 32.04786039665316 1.4534933141756976 -1.2877752024391864 -2.1343344550799186
lfemur -30.74019581170719 3.9311263687254745 -20.767917864592306
ltibia 64.41864631069546
lfoot 1.4382502094498295 -9.20218568841713
ltoes -6.799802778567249
rfemur -5.82190175284072 4.6927933121738015 30.857360842504814
rtibia 53.47979377310982
rfoot 3.5439199824238656 -5.803416169227827
rtoes 0.18284777350046832
lowerback 14.223481880947755 1.5622684389003703 4.572606234272092
upperback -1.2930594666995305 3.5688574150562857 1.9102313422116641
thorax -9.265356000499574 1.2393227965681792 -1.1464051845163625
lowerneck -19.70697974218587 -4.56172215865505 -2.4598744690075174
upperneck 12.41906327524435 -6.345370431651624 5.440833462672292
head 7.407513189405207 -2.5136074102819137 1.4490679949671175
lclavicle 2.9801515526439752e-15 1.1900897868484632e-16
lhumerus -52.39879824897254 -10.269670813791596 95.9987211916135
lradius 110.14541406051795
lwrist 34.32383152284529
lhand -20.57676866443142 2.7755512304634467
lfingers 7.125019999999999
lthumb 5.6677221060071785 32.69955364171206
rclavicle 2.9801381671163078e-15 1.1900166246856291e-16
rhumerus -41.09704835408526 13.538257731758586 -96.06375851454777
rradius 109.78235200893445
rwrist -15.333988655469609
rhand -15.70416691133318 38.585401818067744
rfingers 7.125019999999999
rthumb 10.54455372112048 8.409561531560824
99
root 0.6307006326512464 17.89684240896666 32.14931192489041 1.4846389205985058 -1.1278354273908593 -2.1127108824768235
lfemur -31.305626824297825 3.384879166399303 -21.094993610578992
ltibia 58.242173991191436
lfoot 0.7044851826182011 -9.1453648660849
ltoes -6.180985454264658
rfemur -4.757184919138984 4.840443704557423 30.802618972685845
rtibia 54.46050838061687
rfoot 3.4419880382361483 -5.440654315631761
rtoes 0.3790728310937658
lowerback 13.994894087300889 1.525816241530793 4.3275481461890735
upperback -1.4192634852237318 3.59254407066148 1.7818280344778654
thorax -9.204675389358508 1.2712267001215984 -1.1033434500988477
lowerneck -19.64032244131209 -4.540482758818852 -2.440605412864203
upperneck 12.412583951039448 -6.3949075164558264 5.428671426178051
head 7.413449411625935 -2.4925758390637474 1.4695356250265037
lclavicle 2.9801515526439752e-15 1.1900897868484632e-16
lhumerus -52.92671646515994 -10.365460268013392 95.82447332953001
lradius 110.46323199269456
lwrist 34.28136765432603
lhand -20.54569849048261 2.814100829544623
lfingers 7.125019999999999
lthumb 5.596679384524469 32.633395062357074
rclavicle 2.9801381671163078e-15 1.1900166246856291e-16
rhumerus -41.254038891140304 13.867511293183085 -96.14461915357292
rradius 109.79492896066286
rwrist -15.329698127209232
rhand -15.700089238636215 38.57170983606477
rfingers 7.125019999999999
rthumb 10.532115550385383 8.398482933703084
100
root 0.629226776085195 17.901608519858517 31.10869729470523 1.4143347344021662 -1.1805762296045463 -2.2375397145890408
lfemur -29.41366698227751 3.35208574643728 -20.71208318543857
ltibia 52.68728616762585
lfoot 0.5954980815424726 -9.452085740509297
ltoes -5.598513340868407
rfemur -4.89029440743105 4.812166286587289 30.289600710353234
rtibia 55.59946713539306
rfoot 4.097797311118406 -5.060475637060915
rtoes 1.100032553871698
lowerback 13.840182435157631 1.5133998513692568 4.0641104668525685
upperback -1.511629603465866 3.5882072384955275 1.6693396851027171
thorax -9.207143008376967 1.1940889778727595 -1.1902308600887448
lowerneck -19.670860118541754 -4.562023179883172 -2.440872476523879
upperneck 12.43425895577301 -6.409388164122444 5.447769160250537
head 7.413482951124017 -2.4845574471758645 1.4959691805320536
lclavicle 2.9801515526439752e-15 1.1900897868484632e-16
lhumerus -51.92766389346549 -10.11864705147243 95.78597544110312
lradius 110.65201876384155
lwrist 34.20802425663599
lhand -20.50392491429238 2.829573464188319
lfingers 7.125019999999999
lthumb 5.610528652744589 32.69045960555645
rclavicle 2.9801381671163078e-15 1.1900166246856291e-16
rhumerus -41.67469907814196 14.10401889505185 -96.27823292005831
rradius 109.86640311711999
rwrist -15.266636239206377
rhand -15.719740420229014 38.56809731714189
rfingers 7.125019999999999
rthumb 10.47429417646088 8.319816081848614
101
root 0.62818346348158 17.90121731831366 30.75086499303917 1.351621673333389 -1.168972224168209 -2.276868381938269
lfemur -29.107873779780885 3.1117245468805623 -21.489734346364862
ltibia 48.14250129725785
lfoot 0.40301030397056636 -9.25770780720094
ltoes -5.46029769519784
rfemur -5.473013145324673 4.759936157631351 30.00036020945135
rtibia 57.48412564103856
rfoot 4.034259724714095 -5.195621399489652
rtoes 1.5223700700169336
lowerback 13.699100730229615 1.4788229853144417 3.7151400534784766
upperback -1.5636554966102123 3.6243486347964406 1.582114631240722
thorax -9.08471201913437 1.2801269236389192 -0.8826106543510958
lowerneck -19.67306560572809 -4.496497694834001 -2.4148919623153877
upperneck 12.458853119708547 -6.366086288845276 5.501465779647614
head 7.394715116723735 -2.4990860905579177 1.5011821003948456
lclavicle 2.9801515526439752e-15 1.1900897868484632e-16
lhumerus -52.89623761117191 -10.610171748632473 95.31406289191669
lradius 110.66633628289601
lwrist 34.37086640632877
lhand -20.430832208207686 2.943727583912381
lfingers 7.125019999999999
lthumb 5.605085163526407 32.6577597630458
rclavicle 2.9801381671163078e-15 1.1900166246856291e-16
rhumerus -42.1727868633341 14.304448451223944 -96.44464621886199
rradius 109.91753802627649
rwrist -15.16841371959576
rhand -15.760206444880748 38.567568653767424
rfingers 7.125019999999999
rthumb 10.522996292629855 8.35647456442415
102
root 0.6256666096628689 17.893152939597886 30.58553079030467 1.2740512123884002 -1.1211661477155355 -2.232197790971711
lfemur -26.638438243568576 3.1249065470106347 -21.49556525028247
ltibia 45.18945828044825
lfoot 0.9936758991791558 -9.11606443728814
ltoes -5.684230549585757
rfemur -7.627893236680583 4.555453644765146 29.62430426919205
rtibia 58.882506572667
rfoot 4.782395822278014 -5.240639286118433
rtoes 1.9872494715673747
lowerback 13.662933639572922 1.464044751689839 3.4404824394389513
upperback -1.5834398384981454 3.5844188642231125 1.489010133050461
thorax -9.161254067412816 1.1276888255747957 -1.1115455366970384
lowerneck -19.732346287310683 -4.512667294561054 -2.4195832467388505
upperneck 12.483286020239722 -6.299183458716806 5.5879222760116125
head 7.389549139116627 -2.5111039214386763 1.5126163872548706
lclavicle 2.9801515526439752e-15 1.1900897868484632e-16
lhumerus -52.340682965253556 -10.430607514716705 95.3556212061286
lradius 110.80698089160195
lwrist 34.4086754144071
lhand -20.49232561475364 2.9296068191511173
lfingers 7.125019999999999
lthumb 5.634472020491455 32.69672237728278
rclavicle 2.9801381671163078e-15 1.1900166246856291e-16
rhumerus -42.80895460342515 14.41239930433292 -96.66936852361196
rradius 110.0021390123435
rwrist -15.138710984023671
rhand -15.805730339625697 38.52737989394662
rfingers 7.125019999999999
rthumb 10.445328517202805 8.267420226119183
